<svg width="199" height="186" viewBox="0 0 199 186" fill="none" xmlns="http://www.w3.org/2000/svg">
<ellipse cx="5.36885" cy="5.46741" rx="5.36885" ry="5.46741" fill="#E0EDFF"/>
<ellipse cx="32.2131" cy="5.46741" rx="5.36885" ry="5.46741" fill="#E0EDFF"/>
<ellipse cx="59.0574" cy="5.46741" rx="5.36885" ry="5.46741" fill="#E0EDFF"/>
<ellipse cx="139.59" cy="5.46741" rx="5.36885" ry="5.46741" fill="#E0EDFF"/>
<ellipse cx="85.9017" cy="5.46741" rx="5.36885" ry="5.46741" fill="#E0EDFF"/>
<ellipse cx="166.434" cy="5.46741" rx="5.36885" ry="5.46741" fill="#E0EDFF"/>
<ellipse cx="112.746" cy="5.46741" rx="5.36885" ry="5.46741" fill="#E0EDFF"/>
<ellipse cx="193.279" cy="5.46741" rx="5.36885" ry="5.46741" fill="#E0EDFF"/>
<ellipse cx="5.36885" cy="27.337" rx="5.36885" ry="5.46741" fill="#E0EDFF"/>
<ellipse cx="32.2131" cy="27.337" rx="5.36885" ry="5.46741" fill="#E0EDFF"/>
<ellipse cx="59.0574" cy="27.337" rx="5.36885" ry="5.46741" fill="#E0EDFF"/>
<ellipse cx="139.59" cy="27.337" rx="5.36885" ry="5.46741" fill="#E0EDFF"/>
<ellipse cx="85.9017" cy="27.337" rx="5.36885" ry="5.46741" fill="#E0EDFF"/>
<ellipse cx="166.434" cy="27.337" rx="5.36885" ry="5.46741" fill="#E0EDFF"/>
<ellipse cx="112.746" cy="27.337" rx="5.36885" ry="5.46741" fill="#E0EDFF"/>
<ellipse cx="193.279" cy="27.337" rx="5.36885" ry="5.46741" fill="#E0EDFF"/>
<ellipse cx="5.36885" cy="49.2067" rx="5.36885" ry="5.46741" fill="#E0EDFF"/>
<ellipse cx="32.2131" cy="49.2067" rx="5.36885" ry="5.46741" fill="#E0EDFF"/>
<ellipse cx="59.0574" cy="49.2067" rx="5.36885" ry="5.46741" fill="#E0EDFF"/>
<ellipse cx="139.59" cy="49.2067" rx="5.36885" ry="5.46741" fill="#E0EDFF"/>
<ellipse cx="85.9017" cy="49.2067" rx="5.36885" ry="5.46741" fill="#E0EDFF"/>
<ellipse cx="166.434" cy="49.2067" rx="5.36885" ry="5.46741" fill="#E0EDFF"/>
<ellipse cx="112.746" cy="49.2067" rx="5.36885" ry="5.46741" fill="#E0EDFF"/>
<ellipse cx="193.279" cy="49.2067" rx="5.36885" ry="5.46741" fill="#E0EDFF"/>
<ellipse cx="5.36885" cy="71.0763" rx="5.36885" ry="5.46741" fill="#E0EDFF"/>
<ellipse cx="32.2131" cy="71.0763" rx="5.36885" ry="5.46741" fill="#E0EDFF"/>
<ellipse cx="59.0574" cy="71.0763" rx="5.36885" ry="5.46741" fill="#E0EDFF"/>
<ellipse cx="139.59" cy="71.0763" rx="5.36885" ry="5.46741" fill="#E0EDFF"/>
<ellipse cx="85.9017" cy="71.0763" rx="5.36885" ry="5.46741" fill="#E0EDFF"/>
<ellipse cx="166.434" cy="71.0763" rx="5.36885" ry="5.46741" fill="#E0EDFF"/>
<ellipse cx="112.746" cy="71.0763" rx="5.36885" ry="5.46741" fill="#E0EDFF"/>
<ellipse cx="193.279" cy="71.0763" rx="5.36885" ry="5.46741" fill="#E0EDFF"/>
<ellipse cx="5.36885" cy="92.9459" rx="5.36885" ry="5.46741" fill="#E0EDFF"/>
<ellipse cx="32.2131" cy="92.9459" rx="5.36885" ry="5.46741" fill="#E0EDFF"/>
<ellipse cx="59.0574" cy="92.9459" rx="5.36885" ry="5.46741" fill="#E0EDFF"/>
<ellipse cx="139.59" cy="92.9459" rx="5.36885" ry="5.46741" fill="#E0EDFF"/>
<ellipse cx="85.9017" cy="92.9459" rx="5.36885" ry="5.46741" fill="#E0EDFF"/>
<ellipse cx="166.434" cy="92.9459" rx="5.36885" ry="5.46741" fill="#E0EDFF"/>
<ellipse cx="112.746" cy="92.9459" rx="5.36885" ry="5.46741" fill="#E0EDFF"/>
<ellipse cx="193.279" cy="92.9459" rx="5.36885" ry="5.46741" fill="#E0EDFF"/>
<ellipse cx="5.36885" cy="114.816" rx="5.36885" ry="5.46741" fill="#E0EDFF"/>
<ellipse cx="32.2131" cy="114.816" rx="5.36885" ry="5.46741" fill="#E0EDFF"/>
<ellipse cx="59.0574" cy="114.816" rx="5.36885" ry="5.46741" fill="#E0EDFF"/>
<ellipse cx="139.59" cy="114.816" rx="5.36885" ry="5.46741" fill="#E0EDFF"/>
<ellipse cx="85.9017" cy="114.816" rx="5.36885" ry="5.46741" fill="#E0EDFF"/>
<ellipse cx="166.434" cy="114.816" rx="5.36885" ry="5.46741" fill="#E0EDFF"/>
<ellipse cx="112.746" cy="114.816" rx="5.36885" ry="5.46741" fill="#E0EDFF"/>
<ellipse cx="193.279" cy="114.816" rx="5.36885" ry="5.46741" fill="#E0EDFF"/>
<ellipse cx="5.36885" cy="136.685" rx="5.36885" ry="5.46741" fill="#E0EDFF"/>
<ellipse cx="32.2131" cy="136.685" rx="5.36885" ry="5.46741" fill="#E0EDFF"/>
<ellipse cx="59.0574" cy="136.685" rx="5.36885" ry="5.46741" fill="#E0EDFF"/>
<ellipse cx="139.59" cy="136.685" rx="5.36885" ry="5.46741" fill="#E0EDFF"/>
<ellipse cx="85.9017" cy="136.685" rx="5.36885" ry="5.46741" fill="#E0EDFF"/>
<ellipse cx="166.434" cy="136.685" rx="5.36885" ry="5.46741" fill="#E0EDFF"/>
<ellipse cx="112.746" cy="136.685" rx="5.36885" ry="5.46741" fill="#E0EDFF"/>
<ellipse cx="193.279" cy="136.685" rx="5.36885" ry="5.46741" fill="#E0EDFF"/>
<ellipse cx="5.36885" cy="158.555" rx="5.36885" ry="5.46741" fill="#E0EDFF"/>
<ellipse cx="32.2131" cy="158.555" rx="5.36885" ry="5.46741" fill="#E0EDFF"/>
<ellipse cx="59.0574" cy="158.555" rx="5.36885" ry="5.46741" fill="#E0EDFF"/>
<ellipse cx="139.59" cy="158.555" rx="5.36885" ry="5.46741" fill="#E0EDFF"/>
<ellipse cx="85.9017" cy="158.555" rx="5.36885" ry="5.46741" fill="#E0EDFF"/>
<ellipse cx="166.434" cy="158.555" rx="5.36885" ry="5.46741" fill="#E0EDFF"/>
<ellipse cx="112.746" cy="158.555" rx="5.36885" ry="5.46741" fill="#E0EDFF"/>
<ellipse cx="193.279" cy="158.555" rx="5.36885" ry="5.46741" fill="#E0EDFF"/>
<ellipse cx="5.36885" cy="180.424" rx="5.36885" ry="5.46741" fill="#E0EDFF"/>
<ellipse cx="32.2131" cy="180.424" rx="5.36885" ry="5.46741" fill="#E0EDFF"/>
<ellipse cx="59.0574" cy="180.424" rx="5.36885" ry="5.46741" fill="#E0EDFF"/>
<ellipse cx="139.59" cy="180.424" rx="5.36885" ry="5.46741" fill="#E0EDFF"/>
<ellipse cx="85.9017" cy="180.424" rx="5.36885" ry="5.46741" fill="#E0EDFF"/>
<ellipse cx="166.434" cy="180.424" rx="5.36885" ry="5.46741" fill="#E0EDFF"/>
<ellipse cx="112.746" cy="180.424" rx="5.36885" ry="5.46741" fill="#E0EDFF"/>
<ellipse cx="193.279" cy="180.424" rx="5.36885" ry="5.46741" fill="#E0EDFF"/>
</svg>
